<svg xmlns="http://www.w3.org/2000/svg" width="265" height="26" viewBox="0 0 265 26">
    <defs>
        <linearGradient id="a" x1="20.846%" x2="83.437%" y1="-2.088%" y2="99.195%">
            <stop offset="0%" stop-color="#E7DA9A"/>
            <stop offset="51.106%" stop-color="#CDB373"/>
            <stop offset="100%" stop-color="#996E2D"/>
        </linearGradient>
    </defs>
    <g fill="none" fill-rule="evenodd">
        <path fill="url(#a)" fill-rule="nonzero" d="M1.822 0c0 6.135 4.816 11.164 10.932 11.628V.896h1.821V11.63c6.13-.452 10.96-5.487 10.96-11.63h1.823c0 6.227-4.303 11.467-10.143 13 5.84 1.533 10.143 6.773 10.143 13h-1.822c0-6.143-4.832-11.178-10.96-11.63v10.732h-1.823v-10.73C6.639 14.836 1.823 19.865 1.823 26H0c0-6.228 4.302-11.467 10.142-13C4.302 11.466 0 6.227 0 0h1.822z" transform="translate(119.505)"/>
        <g fill="#D9B062" opacity=".3">
            <path d="M164.645 13.684H264.5v1.369h-99.855zM.5 13.684h99.855v1.369H.5z"/>
        </g>
    </g>
</svg>
